<svg width="16" height="17" viewBox="0 0 16 17" fill="none" xmlns="http://www.w3.org/2000/svg">
<path d="M12.4666 6.96665L8.46659 10.9666C8.33325 11.1 8.19992 11.1666 7.99992 11.1666C7.79992 11.1666 7.66659 11.1 7.53325 10.9666L3.53325 6.96665C3.26659 6.69998 3.26659 6.29998 3.53325 6.03331C3.79992 5.76665 4.19992 5.76665 4.46659 6.03331L7.99992 9.56665L11.5333 6.03331C11.7999 5.76665 12.1999 5.76665 12.4666 6.03331C12.7333 6.29998 12.7333 6.69998 12.4666 6.96665Z" fill="black"/>
<mask id="mask0_82_190" style="mask-type:luminance" maskUnits="userSpaceOnUse" x="3" y="5" width="10" height="7">
<path d="M12.4666 6.96665L8.46659 10.9666C8.33325 11.1 8.19992 11.1666 7.99992 11.1666C7.79992 11.1666 7.66659 11.1 7.53325 10.9666L3.53325 6.96665C3.26659 6.69998 3.26659 6.29998 3.53325 6.03331C3.79992 5.76665 4.19992 5.76665 4.46659 6.03331L7.99992 9.56665L11.5333 6.03331C11.7999 5.76665 12.1999 5.76665 12.4666 6.03331C12.7333 6.29998 12.7333 6.69998 12.4666 6.96665Z" fill="white"/>
</mask>
<g mask="url(#mask0_82_190)">
<rect y="0.5" width="16" height="16" fill="#6E6B7B"/>
</g>
</svg>
