<svg width="18" height="19" viewBox="0 0 18 19" fill="none" xmlns="http://www.w3.org/2000/svg">
<path fill-rule="evenodd" clip-rule="evenodd" d="M2.71419 1.85002C2.51304 1.85002 2.30131 1.93734 2.13143 2.12451C1.95907 2.31443 1.8499 2.58821 1.8499 2.88891V16.1111C1.8499 16.4118 1.95907 16.6856 2.13143 16.8755C2.30131 17.0627 2.51304 17.15 2.71419 17.15H12.1499V9.00002V2.88891C12.1499 2.58821 12.0407 2.31443 11.8684 2.12451C11.6985 1.93734 11.4868 1.85002 11.2856 1.85002H2.71419ZM2.71419 18.85H12.9999H14.9999C15.7558 18.85 16.4807 18.5498 17.0152 18.0153C17.5496 17.4808 17.8499 16.7559 17.8499 16V9.00002C17.8499 8.53058 17.4693 8.15002 16.9999 8.15002H13.8499V2.88891C13.8499 2.18769 13.5978 1.50058 13.1272 0.982022C12.6541 0.460727 11.9938 0.150024 11.2856 0.150024H2.71419C2.00603 0.150024 1.34569 0.460727 0.872577 0.982022C0.401956 1.50058 0.149902 2.18769 0.149902 2.88891V16.1111C0.149902 16.8124 0.401956 17.4995 0.872577 18.018C1.34568 18.5393 2.00603 18.85 2.71419 18.85ZM13.8499 17.15V9.85003H16.1499V16C16.1499 16.305 16.0287 16.5975 15.8131 16.8132C15.5974 17.0289 15.3049 17.15 14.9999 17.15H13.8499ZM4.9999 5.15002C4.53046 5.15002 4.1499 5.53058 4.1499 6.00002C4.1499 6.46947 4.53046 6.85002 4.9999 6.85002H8.9999C9.46935 6.85002 9.8499 6.46947 9.8499 6.00002C9.8499 5.53058 9.46935 5.15002 8.9999 5.15002H4.9999ZM4.1499 9.00002C4.1499 8.53058 4.53046 8.15002 4.9999 8.15002H8.9999C9.46935 8.15002 9.8499 8.53058 9.8499 9.00002C9.8499 9.46947 9.46935 9.85003 8.9999 9.85003H4.9999C4.53046 9.85003 4.1499 9.46947 4.1499 9.00002ZM4.9999 12.15C4.53046 12.15 4.1499 12.5306 4.1499 13C4.1499 13.4695 4.53046 13.85 4.9999 13.85H7.9999C8.46934 13.85 8.8499 13.4695 8.8499 13C8.8499 12.5306 8.46934 12.15 7.9999 12.15H4.9999Z" fill="#FDF72F"/>
</svg>
