<svg width="20" height="18" viewBox="0 0 20 18" fill="none" xmlns="http://www.w3.org/2000/svg">
<path fill-rule="evenodd" clip-rule="evenodd" d="M15.8499 3.7778C15.8499 3.20873 15.8506 2.79903 15.878 2.47886C15.9061 2.15187 15.9554 2.03191 15.9788 1.9929C15.9848 1.98283 15.9872 1.9811 15.9904 1.97879L15.9908 1.97844C15.9973 1.97368 16.0248 1.95522 16.0943 1.93375C16.2502 1.88564 16.5211 1.85002 16.9999 1.85002C17.4787 1.85002 17.7496 1.88564 17.9055 1.93375C17.9751 1.95522 18.0025 1.97368 18.009 1.97844L18.0095 1.97879C18.0126 1.9811 18.015 1.98283 18.021 1.9929C18.0444 2.03191 18.0937 2.15187 18.1218 2.47886C18.1492 2.79903 18.1499 3.20873 18.1499 3.7778V3.79087V3.80402V3.81725V3.83057V3.84398V3.85747V3.87105V3.88471V3.89845V3.91228V3.92619V3.94018V3.95426V3.96841V3.98265V3.99697V4.01137V4.02586V4.04042V4.05506V4.06978V4.08459V4.09947V4.11443V4.12946V4.14458V4.15977V4.17504V4.19039V4.20582V4.22132V4.23689V4.25255V4.26828V4.28408V4.29996V4.31591V4.33193V4.34803V4.36421V4.38045V4.39677V4.41316V4.42962V4.44616V4.46276V4.47944V4.49619V4.513V4.52989V4.54685V4.56387V4.58097V4.59813V4.61536V4.63266V4.65003V4.66746V4.68496V4.70253V4.72017V4.73787V4.75563V4.77346V4.79136V4.80932V4.82734V4.84543V4.86358V4.88179V4.90007V4.91841V4.93681V4.95528V4.9738V4.99239V5.01104V5.02974V5.04851V5.06734V5.08623V5.10517V5.12418V5.14324V5.16236V5.18154V5.20078V5.22007V5.23942V5.25883V5.27829V5.29781V5.31738V5.33701V5.3567V5.37643V5.39623V5.41607V5.43597V5.45592V5.47593V5.49599V5.5161V5.53626V5.55647V5.57673V5.59705V5.61741V5.63783V5.65829V5.6788V5.69936V5.71998V5.74063V5.76134V5.7821V5.8029V5.82375V5.84464V5.86559V5.88657V5.90761V5.92869V5.94981V5.97098V5.99219V6.01345V6.03475V6.05609V6.07748V6.0989V6.12037V6.14189V6.16344V6.18504V6.20667V6.22835V6.25007V6.27182V6.29362V6.31546V6.33733V6.35924V6.3812V6.40318V6.42521V6.44727V6.46937V6.49151V6.51368V6.53589V6.55814V6.58042V6.60273V6.62508V6.64746V6.66988V6.69233V6.71481V6.73733V6.75988V6.78246V6.80507V6.82771V6.85039V6.87309V6.89583V6.91859V6.94139V6.96421V6.98707V7.00995V7.03286V7.0558V7.07877V7.10176V7.12478V7.14783V7.17091V7.19401V7.21713V7.24028V7.26346V7.28666V7.30989V7.33313V7.35641V7.3797V7.40302V7.42636V7.44973V7.47311V7.49652V7.51995V7.5434V7.56687V7.59036V7.61387V7.6374V7.66095V7.68452V7.70811V7.73171V7.75533V7.77898V7.80263V7.82631V7.85V7.87371V7.89743V7.92117V7.94492V7.96869V7.99248V8.01627V8.04008V8.06391V8.08775V8.1116V8.13546V8.15934V8.18323V8.20712V8.23104V8.25496V8.27889V8.30283V8.32678V8.35074V8.37471V8.39869V8.42268V8.44667V8.47067V8.49469V8.5187V8.54273V8.56676V8.59079V8.61484V8.63889V8.66294V8.687V8.71106V8.73512V8.75919V8.78327V8.80734V8.83142V8.8555V8.87959V8.90367V8.92776V8.95185V8.97593V9.00002V9.02411V9.0482V9.07229V9.09637V9.12046V9.14454V9.16862V9.1927V9.21678V9.24085V9.26492V9.28899V9.31305V9.33711V9.36116V9.38521V9.40925V9.43329V9.45732V9.48134V9.50536V9.52937V9.55338V9.57737V9.60136V9.62534V9.64931V9.67327V9.69722V9.72116V9.74509V9.76901V9.79292V9.81682V9.84071V9.86458V9.88845V9.9123V9.93614V9.95996V9.98377V10.0076V10.0314V10.0551V10.0789V10.1026V10.1263V10.15V10.1737V10.1974V10.2211V10.2447V10.2683V10.2919V10.3155V10.3391V10.3626V10.3862V10.4097V10.4332V10.4566V10.4801V10.5035V10.5269V10.5503V10.5737V10.597V10.6203V10.6436V10.6669V10.6902V10.7134V10.7366V10.7598V10.7829V10.806V10.8291V10.8522V10.8753V10.8983V10.9213V10.9442V10.9672V10.9901V11.013V11.0358V11.0587V11.0815V11.1042V11.127V11.1497V11.1723V11.195V11.2176V11.2402V11.2627V11.2852V11.3077V11.3302V11.3526V11.375V11.3973V11.4196V11.4419V11.4642V11.4864V11.5085V11.5307V11.5528V11.5748V11.5969V11.6189V11.6408V11.6627V11.6846V11.7064V11.7282V11.75V11.7717V11.7934V11.815V11.8366V11.8582V11.8797V11.9011V11.9226V11.944V11.9653V11.9866V12.0079V12.0291V12.0502V12.0714V12.0924V12.1135V12.1345V12.1554V12.1763V12.1971V12.2179V12.2387V12.2594V12.2801V12.3007V12.3212V12.3418V12.3622V12.3826V12.403V12.4233V12.4436V12.4638V12.484V12.5041V12.5241V12.5441V12.5641V12.584V12.6038V12.6236V12.6434V12.663V12.6827V12.7022V12.7218V12.7412V12.7606V12.78V12.7993V12.8185V12.8377V12.8568V12.8759V12.8949V12.9138V12.9327V12.9515V12.9703V12.989V13.0077V13.0262V13.0448V13.0632V13.0816V13.1V13.1183V13.1365V13.1546V13.1727V13.1907V13.2087V13.2266V13.2444V13.2622V13.2799V13.2975V13.3151V13.3326V13.35V13.3674V13.3847V13.4019V13.4191V13.4362V13.4532V13.4702V13.487V13.5039V13.5206V13.5373V13.5539V13.5704V13.5869V13.6033V13.6196V13.6358V13.652V13.6681V13.6841V13.7001V13.716V13.7318V13.7475V13.7632V13.7787V13.7942V13.8097V13.825V13.8403V13.8555V13.8706V13.8856V13.9006V13.9155V13.9303V13.945V13.9596V13.9742V13.9887V14.0031V14.0174V14.0316V14.0458V14.0599V14.0739V14.0878V14.1016V14.1153V14.129V14.1426V14.1561V14.1695V14.1828V14.196V14.2092V14.2222C18.1499 14.8944 18.1117 15.3497 18.0489 15.6586C17.9857 15.969 17.9122 16.0566 17.8997 16.0698C17.8952 16.0746 17.8911 16.0784 17.878 16.0845C17.8611 16.0925 17.824 16.1064 17.7514 16.1189C17.5858 16.1474 17.3686 16.15 16.9999 16.15C16.6255 16.15 16.4055 16.1474 16.2387 16.1188C16.1656 16.1063 16.1289 16.0924 16.1128 16.0848C16.1008 16.0791 16.0979 16.0761 16.0944 16.0724C16.0834 16.0607 16.0108 15.9742 15.9486 15.6621C15.8868 15.352 15.8499 14.8956 15.8499 14.2222V3.7778ZM16.9999 0.150024C16.0336 0.150024 15.0407 0.252166 14.521 1.11826C14.2944 1.49591 14.2187 1.93151 14.1843 2.33369C14.1499 2.73479 14.1499 3.21674 14.1499 3.74644V3.74645V3.7778V14.2222C14.1499 14.9378 14.1875 15.523 14.2814 15.9942C14.3748 16.4633 14.5389 16.8977 14.8524 17.2332C15.1817 17.5855 15.5834 17.7313 15.9516 17.7944C16.2775 17.8503 16.6413 17.8501 16.9596 17.85L16.9999 17.85L17.0396 17.85C17.3531 17.8501 17.7145 17.8503 18.0397 17.7943C18.4068 17.7312 18.8072 17.5856 19.1369 17.2358C19.4516 16.9018 19.6189 16.4686 19.7147 15.9977C19.8109 15.5253 19.8499 14.939 19.8499 14.2222V14.2092V14.196V14.1828V14.1695V14.1561V14.1426V14.129V14.1153V14.1016V14.0878V14.0739V14.0599V14.0458V14.0316V14.0174V14.0031V13.9887V13.9742V13.9596V13.945V13.9303V13.9155V13.9006V13.8856V13.8706V13.8555V13.8403V13.825V13.8097V13.7942V13.7787V13.7632V13.7475V13.7318V13.716V13.7001V13.6841V13.6681V13.652V13.6358V13.6196V13.6033V13.5869V13.5704V13.5539V13.5373V13.5206V13.5039V13.487V13.4702V13.4532V13.4362V13.4191V13.4019V13.3847V13.3674V13.35V13.3326V13.3151V13.2975V13.2799V13.2622V13.2444V13.2266V13.2087V13.1907V13.1727V13.1546V13.1365V13.1183V13.1V13.0816V13.0632V13.0448V13.0262V13.0077V12.989V12.9703V12.9515V12.9327V12.9138V12.8949V12.8759V12.8568V12.8377V12.8185V12.7993V12.78V12.7606V12.7412V12.7218V12.7022V12.6827V12.663V12.6434V12.6236V12.6038V12.584V12.5641V12.5441V12.5241V12.5041V12.484V12.4638V12.4436V12.4233V12.403V12.3826V12.3622V12.3418V12.3212V12.3007V12.2801V12.2594V12.2387V12.2179V12.1971V12.1763V12.1554V12.1345V12.1135V12.0924V12.0714V12.0502V12.0291V12.0079V11.9866V11.9653V11.944V11.9226V11.9011V11.8797V11.8582V11.8366V11.815V11.7934V11.7717V11.75V11.7282V11.7064V11.6846V11.6627V11.6408V11.6189V11.5969V11.5748V11.5528V11.5307V11.5085V11.4864V11.4642V11.4419V11.4196V11.3973V11.375V11.3526V11.3302V11.3077V11.2852V11.2627V11.2402V11.2176V11.195V11.1723V11.1497V11.127V11.1042V11.0815V11.0587V11.0358V11.013V10.9901V10.9672V10.9442V10.9213V10.8983V10.8753V10.8522V10.8291V10.806V10.7829V10.7598V10.7366V10.7134V10.6902V10.6669V10.6436V10.6203V10.597V10.5737V10.5503V10.5269V10.5035V10.4801V10.4566V10.4332V10.4097V10.3862V10.3626V10.3391V10.3155V10.2919V10.2683V10.2447V10.2211V10.1974V10.1737V10.15V10.1263V10.1026V10.0789V10.0551V10.0314V10.0076V9.98377V9.95996V9.93614V9.9123V9.88845V9.86458V9.84071V9.81682V9.79292V9.76901V9.74509V9.72116V9.69722V9.67327V9.64931V9.62534V9.60136V9.57737V9.55338V9.52937V9.50536V9.48134V9.45732V9.43329V9.40925V9.38521V9.36116V9.33711V9.31305V9.28899V9.26492V9.24085V9.21678V9.1927V9.16862V9.14454V9.12046V9.09637V9.07229V9.0482V9.02411V9.00002V8.97593V8.95185V8.92776V8.90367V8.87959V8.8555V8.83142V8.80734V8.78327V8.75919V8.73512V8.71106V8.687V8.66294V8.63889V8.61484V8.59079V8.56676V8.54273V8.5187V8.49469V8.47067V8.44667V8.42268V8.39869V8.37471V8.35074V8.32678V8.30283V8.27889V8.25496V8.23104V8.20712V8.18323V8.15934V8.13546V8.1116V8.08775V8.06391V8.04008V8.01627V7.99248V7.96869V7.94492V7.92117V7.89743V7.87371V7.85V7.82631V7.80263V7.77898V7.75533V7.73171V7.70811V7.68452V7.66095V7.6374V7.61387V7.59036V7.56687V7.5434V7.51995V7.49652V7.47311V7.44973V7.42636V7.40302V7.3797V7.35641V7.33313V7.30989V7.28666V7.26346V7.24028V7.21713V7.19401V7.17091V7.14783V7.12478V7.10176V7.07877V7.0558V7.03286V7.00995V6.98707V6.96421V6.94139V6.91859V6.89583V6.87309V6.85039V6.82771V6.80507V6.78246V6.75988V6.73733V6.71481V6.69233V6.66988V6.64746V6.62508V6.60273V6.58042V6.55814V6.53589V6.51368V6.49151V6.46937V6.44727V6.42521V6.40318V6.3812V6.35924V6.33733V6.31546V6.29362V6.27182V6.25007V6.22835V6.20667V6.18504V6.16344V6.14189V6.12037V6.0989V6.07748V6.05609V6.03475V6.01345V5.99219V5.97098V5.94981V5.92869V5.90761V5.88657V5.86559V5.84464V5.82375V5.8029V5.7821V5.76134V5.74063V5.71998V5.69936V5.6788V5.65829V5.63783V5.61741V5.59705V5.57673V5.55647V5.53626V5.5161V5.49599V5.47593V5.45592V5.43597V5.41607V5.39623V5.37643V5.3567V5.33701V5.31738V5.29781V5.27829V5.25883V5.23942V5.22007V5.20078V5.18154V5.16236V5.14324V5.12418V5.10517V5.08623V5.06734V5.04851V5.02974V5.01104V4.99239V4.9738V4.95528V4.93681V4.91841V4.90007V4.88179V4.86358V4.84543V4.82734V4.80932V4.79136V4.77346V4.75563V4.73787V4.72017V4.70253V4.68496V4.66746V4.65003V4.63266V4.61536V4.59813V4.58097V4.56387V4.54685V4.52989V4.513V4.49619V4.47944V4.46276V4.44616V4.42962V4.41316V4.39677V4.38045V4.36421V4.34803V4.33193V4.31591V4.29996V4.28408V4.26828V4.25255V4.23689V4.22132V4.20582V4.19039V4.17504V4.15977V4.14458V4.12946V4.11443V4.09947V4.08459V4.06978V4.05506V4.04042V4.02586V4.01137V3.99697V3.98265V3.96841V3.95426V3.94018V3.92619V3.91228V3.89845V3.88471V3.87105V3.85747V3.84398V3.83057V3.81725V3.80402V3.79087V3.7778L19.8499 3.74643C19.8499 3.21674 19.8499 2.73479 19.8156 2.33369C19.7811 1.93151 19.7054 1.49591 19.4788 1.11826C18.9591 0.252166 17.9662 0.150024 16.9999 0.150024ZM8.8789 6.49999C8.85389 6.72542 8.85288 6.98792 8.85288 7.33336L8.85289 11L8.85289 14.6667C8.85289 14.6749 8.85277 14.683 8.85254 14.6912C8.82776 15.5508 8.98421 15.8413 9.07718 15.9409C9.15754 16.027 9.35949 16.15 9.99963 16.15C10.6254 16.15 10.8336 16.0284 10.9192 15.9376C11.0143 15.8368 11.1741 15.5458 11.1468 14.694C11.1465 14.6849 11.1464 14.6758 11.1464 14.6667V11L11.1464 7.33336C11.1464 6.98792 11.1454 6.72542 11.1204 6.49999C11.0957 6.27781 11.0539 6.16413 11.0176 6.10349L11.0164 6.10143C10.993 6.0617 10.8681 5.85002 9.99963 5.85002C9.13113 5.85002 9.0063 6.0617 8.98287 6.10143L8.98165 6.10349C8.94533 6.16413 8.90354 6.27781 8.8789 6.49999ZM7.52328 5.2299C8.00226 4.4303 8.88771 4.15002 9.99963 4.15002C11.1115 4.15002 11.997 4.4303 12.476 5.2299C12.6892 5.58592 12.7722 5.97224 12.81 6.31256C12.8464 6.64101 12.8464 6.99362 12.8464 7.30865L12.8464 7.33336L12.8464 11V14.6534C12.876 15.6293 12.7261 16.4995 12.1559 17.1041C11.5734 17.7217 10.7539 17.85 9.99963 17.85C9.23807 17.85 8.41523 17.7231 7.83443 17.1009C7.26869 16.4947 7.1264 15.6235 7.15289 14.6548L7.15289 11L7.15288 7.33336L7.15288 7.30864C7.15285 6.99361 7.15283 6.64101 7.18926 6.31256C7.22701 5.97224 7.31002 5.58592 7.52328 5.2299ZM1.87699 11.5196C1.85077 11.7834 1.8499 12.1018 1.8499 12.5278V15.2943C1.8499 15.7748 1.96608 15.9063 2.02239 15.954C2.114 16.0315 2.36195 16.15 2.99991 16.15C3.62361 16.15 3.87535 16.0328 3.97195 15.9517C4.03276 15.9007 4.14991 15.7665 4.14991 15.2943V15.2872V15.2801V15.273V15.2659V15.2589V15.2518V15.2448V15.2378V15.2308V15.2238V15.2169V15.2099V15.203V15.196V15.1891V15.1822V15.1753V15.1685V15.1616V15.1547V15.1479V15.1411V15.1343V15.1275V15.1207V15.114V15.1072V15.1005V15.0937V15.087V15.0803V15.0737V15.067V15.0603V15.0537V15.047V15.0404V15.0338V15.0272V15.0206V15.0141V15.0075V15.001V14.9944V14.9879V14.9814V14.9749V14.9684V14.962V14.9555V14.9491V14.9426V14.9362V14.9298V14.9234V14.917V14.9107V14.9043V14.898V14.8916V14.8853V14.879V14.8727V14.8664V14.8601V14.8539V14.8476V14.8414V14.8351V14.8289V14.8227V14.8165V14.8103V14.8041V14.798V14.7918V14.7857V14.7796V14.7734V14.7673V14.7612V14.7551V14.7491V14.743V14.7369V14.7309V14.7249V14.7188V14.7128V14.7068V14.7008V14.6949V14.6889V14.6829V14.677V14.671V14.6651V14.6592V14.6533V14.6474V14.6415V14.6356V14.6297V14.6239V14.618V14.6122V14.6064V14.6005V14.5947V14.5889V14.5831V14.5773V14.5716V14.5658V14.5601V14.5543V14.5486V14.5428V14.5371V14.5314V14.5257V14.52V14.5143V14.5087V14.503V14.4974V14.4917V14.4861V14.4804V14.4748V14.4692V14.4636V14.458V14.4524V14.4468V14.4413V14.4357V14.4302V14.4246V14.4191V14.4135V14.408V14.4025V14.397V14.3915V14.386V14.3805V14.3751V14.3696V14.3641V14.3587V14.3533V14.3478V14.3424V14.337V14.3316V14.3261V14.3208V14.3154V14.31V14.3046V14.2992V14.2939V14.2885V14.2832V14.2778V14.2725V14.2672V14.2618V14.2565V14.2512V14.2459V14.2406V14.2353V14.2301V14.2248V14.2195V14.2143V14.209V14.2038V14.1985V14.1933V14.1881V14.1828V14.1776V14.1724V14.1672V14.162V14.1568V14.1516V14.1464V14.1413V14.1361V14.1309V14.1258V14.1206V14.1155V14.1103V14.1052V14.1001V14.0949V14.0898V14.0847V14.0796V14.0745V14.0694V14.0643V14.0592V14.0541V14.049V14.044V14.0389V14.0338V14.0288V14.0237V14.0187V14.0136V14.0086V14.0035V13.9985V13.9935V13.9884V13.9834V13.9784V13.9734V13.9684V13.9634V13.9584V13.9534V13.9484V13.9434V13.9384V13.9335V13.9285V13.9235V13.9185V13.9136V13.9086V13.9037V13.8987V13.8938V13.8888V13.8839V13.8789V13.874V13.8691V13.8641V13.8592V13.8543V13.8494V13.8444V13.8395V13.8346V13.8297V13.8248V13.8199V13.815V13.8101V13.8052V13.8003V13.7954V13.7906V13.7857V13.7808V13.7759V13.771V13.7662V13.7613V13.7564V13.7516V13.7467V13.7418V13.737V13.7321V13.7272V13.7224V13.7175V13.7127V13.7078V13.703V13.6981V13.6933V13.6885V13.6836V13.6788V13.6739V13.6691V13.6643V13.6594V13.6546V13.6498V13.6449V13.6401V13.6353V13.6304V13.6256V13.6208V13.616V13.6111V13.6063V13.6015V13.5967V13.5919V13.587V13.5822V13.5774V13.5726V13.5678V13.5629V13.5581V13.5533V13.5485V13.5437V13.5389V13.534V13.5292V13.5244V13.5196V13.5148V13.51V13.5051V13.5003V13.4955V13.4907V13.4859V13.481V13.4762V13.4714V13.4666V13.4618V13.4569V13.4521V13.4473V13.4425V13.4377V13.4328V13.428V13.4232V13.4184V13.4135V13.4087V13.4039V13.399V13.3942V13.3894V13.3845V13.3797V13.3748V13.37V13.3652V13.3603V13.3555V13.3506V13.3458V13.3409V13.3361V13.3312V13.3264V13.3215V13.3167V13.3118V13.3069V13.3021V13.2972V13.2923V13.2875V13.2826V13.2777V13.2728V13.2679V13.2631V13.2582V13.2533V13.2484V13.2435V13.2386V13.2337V13.2288V13.2239V13.219V13.2141V13.2092V13.2042V13.1993V13.1944V13.1895V13.1845V13.1796V13.1747V13.1697V13.1648V13.1599V13.1549V13.1499V13.145V13.14V13.1351V13.1301V13.1251V13.1202V13.1152V13.1102V13.1052V13.1002V13.0952V13.0902V13.0852V13.0802V13.0752V13.0702V13.0652V13.0601V13.0551V13.0501V13.045V13.04V13.0349V13.0299V13.0248V13.0198V13.0147V13.0096V13.0046V12.9995V12.9944V12.9893V12.9842V12.9791V12.974V12.9689V12.9638V12.9587V12.9535V12.9484V12.9433V12.9381V12.933V12.9278V12.9227V12.9175V12.9123V12.9071V12.902V12.8968V12.8916V12.8864V12.8812V12.876V12.8707V12.8655V12.8603V12.8551V12.8498V12.8446V12.8393V12.834V12.8288V12.8235V12.8182V12.8129V12.8076V12.8023V12.797V12.7917V12.7864V12.7811V12.7757V12.7704V12.765V12.7597V12.7543V12.749V12.7436V12.7382V12.7328V12.7274V12.722V12.7166V12.7112V12.7057V12.7003V12.6949V12.6894V12.6839V12.6785V12.673V12.6675V12.662V12.6565V12.651V12.6455V12.64V12.6345V12.6289V12.6234V12.6178V12.6123V12.6067V12.6011V12.5955V12.5899V12.5843V12.5787V12.5731V12.5675V12.5618V12.5562V12.5505V12.5449V12.5429L4.14298 12.3406V12.3406C4.13193 12.0114 4.12329 11.754 4.09873 11.527C4.06924 11.2544 4.02483 11.1272 3.98949 11.0653L3.98882 11.0639C3.97981 11.0437 3.89324 10.85 2.99991 10.85C2.10266 10.85 1.99818 11.0459 1.9838 11.0728L1.9827 11.0748C1.94822 11.1335 1.90315 11.2563 1.87699 11.5196ZM0.5171 10.2134C1.00736 9.37929 1.9251 9.15002 2.99991 9.15002C4.07667 9.15002 4.98566 9.38065 5.46614 10.223C5.67343 10.5864 5.75033 10.9879 5.78887 11.3442C5.82089 11.6402 5.83195 11.9753 5.84283 12.3046C5.84496 12.3693 5.84709 12.4337 5.84937 12.4975L5.84966 12.5072L5.84991 12.5278V12.5335V12.5392V12.5449V12.5505V12.5562V12.5618V12.5675V12.5731V12.5787V12.5843V12.5899V12.5955V12.6011V12.6067V12.6123V12.6178V12.6234V12.6289V12.6345V12.64V12.6455V12.651V12.6565V12.662V12.6675V12.673V12.6785V12.6839V12.6894V12.6949V12.7003V12.7057V12.7112V12.7166V12.722V12.7274V12.7328V12.7382V12.7436V12.749V12.7543V12.7597V12.765V12.7704V12.7757V12.7811V12.7864V12.7917V12.797V12.8023V12.8076V12.8129V12.8182V12.8235V12.8288V12.834V12.8393V12.8446V12.8498V12.8551V12.8603V12.8655V12.8707V12.876V12.8812V12.8864V12.8916V12.8968V12.902V12.9071V12.9123V12.9175V12.9227V12.9278V12.933V12.9381V12.9433V12.9484V12.9535V12.9587V12.9638V12.9689V12.974V12.9791V12.9842V12.9893V12.9944V12.9995V13.0046V13.0096V13.0147V13.0198V13.0248V13.0299V13.0349V13.04V13.045V13.0501V13.0551V13.0601V13.0652V13.0702V13.0752V13.0802V13.0852V13.0902V13.0952V13.1002V13.1052V13.1102V13.1152V13.1202V13.1251V13.1301V13.1351V13.14V13.145V13.1499V13.1549V13.1599V13.1648V13.1697V13.1747V13.1796V13.1845V13.1895V13.1944V13.1993V13.2042V13.2092V13.2141V13.219V13.2239V13.2288V13.2337V13.2386V13.2435V13.2484V13.2533V13.2582V13.2631V13.2679V13.2728V13.2777V13.2826V13.2875V13.2923V13.2972V13.3021V13.3069V13.3118V13.3167V13.3215V13.3264V13.3312V13.3361V13.3409V13.3458V13.3506V13.3555V13.3603V13.3652V13.37V13.3748V13.3797V13.3845V13.3894V13.3942V13.399V13.4039V13.4087V13.4135V13.4184V13.4232V13.428V13.4328V13.4377V13.4425V13.4473V13.4521V13.4569V13.4618V13.4666V13.4714V13.4762V13.481V13.4859V13.4907V13.4955V13.5003V13.5051V13.51V13.5148V13.5196V13.5244V13.5292V13.534V13.5389V13.5437V13.5485V13.5533V13.5581V13.5629V13.5678V13.5726V13.5774V13.5822V13.587V13.5919V13.5967V13.6015V13.6063V13.6111V13.616V13.6208V13.6256V13.6304V13.6353V13.6401V13.6449V13.6498V13.6546V13.6594V13.6643V13.6691V13.6739V13.6788V13.6836V13.6885V13.6933V13.6981V13.703V13.7078V13.7127V13.7175V13.7224V13.7272V13.7321V13.737V13.7418V13.7467V13.7516V13.7564V13.7613V13.7662V13.771V13.7759V13.7808V13.7857V13.7906V13.7954V13.8003V13.8052V13.8101V13.815V13.8199V13.8248V13.8297V13.8346V13.8395V13.8444V13.8494V13.8543V13.8592V13.8641V13.8691V13.874V13.8789V13.8839V13.8888V13.8938V13.8987V13.9037V13.9086V13.9136V13.9185V13.9235V13.9285V13.9335V13.9384V13.9434V13.9484V13.9534V13.9584V13.9634V13.9684V13.9734V13.9784V13.9834V13.9884V13.9935V13.9985V14.0035V14.0086V14.0136V14.0187V14.0237V14.0288V14.0338V14.0389V14.044V14.049V14.0541V14.0592V14.0643V14.0694V14.0745V14.0796V14.0847V14.0898V14.0949V14.1001V14.1052V14.1103V14.1155V14.1206V14.1258V14.1309V14.1361V14.1413V14.1464V14.1516V14.1568V14.162V14.1672V14.1724V14.1776V14.1828V14.1881V14.1933V14.1985V14.2038V14.209V14.2143V14.2195V14.2248V14.2301V14.2353V14.2406V14.2459V14.2512V14.2565V14.2618V14.2672V14.2725V14.2778V14.2832V14.2885V14.2939V14.2992V14.3046V14.31V14.3154V14.3208V14.3261V14.3316V14.337V14.3424V14.3478V14.3533V14.3587V14.3641V14.3696V14.3751V14.3805V14.386V14.3915V14.397V14.4025V14.408V14.4135V14.4191V14.4246V14.4302V14.4357V14.4413V14.4468V14.4524V14.458V14.4636V14.4692V14.4748V14.4804V14.4861V14.4917V14.4974V14.503V14.5087V14.5143V14.52V14.5257V14.5314V14.5371V14.5428V14.5486V14.5543V14.5601V14.5658V14.5716V14.5773V14.5831V14.5889V14.5947V14.6005V14.6064V14.6122V14.618V14.6239V14.6297V14.6356V14.6415V14.6474V14.6533V14.6592V14.6651V14.671V14.677V14.6829V14.6889V14.6949V14.7008V14.7068V14.7128V14.7188V14.7249V14.7309V14.7369V14.743V14.7491V14.7551V14.7612V14.7673V14.7734V14.7796V14.7857V14.7918V14.798V14.8041V14.8103V14.8165V14.8227V14.8289V14.8351V14.8414V14.8476V14.8539V14.8601V14.8664V14.8727V14.879V14.8853V14.8916V14.898V14.9043V14.9107V14.917V14.9234V14.9298V14.9362V14.9426V14.9491V14.9555V14.962V14.9684V14.9749V14.9814V14.9879V14.9944V15.001V15.0075V15.0141V15.0206V15.0272V15.0338V15.0404V15.047V15.0537V15.0603V15.067V15.0737V15.0803V15.087V15.0937V15.1005V15.1072V15.114V15.1207V15.1275V15.1343V15.1411V15.1479V15.1547V15.1616V15.1685V15.1753V15.1822V15.1891V15.196V15.203V15.2099V15.2169V15.2238V15.2308V15.2378V15.2448V15.2518V15.2589V15.2659V15.273V15.2801V15.2872V15.2943C5.84991 16.0374 5.6582 16.7561 5.06457 17.2541C4.50674 17.7221 3.75848 17.85 2.99991 17.85C2.23389 17.85 1.48183 17.7234 0.924435 17.2518C0.331742 16.7504 0.149903 16.0291 0.149903 15.2943V12.5278V12.5004V12.5003C0.149885 12.1087 0.149866 11.7083 0.185319 11.3515C0.22165 10.9859 0.301579 10.5801 0.5171 10.2134Z" fill="#FDF72F"/>
</svg>
