<svg width="11" height="10" viewBox="0 0 11 10" fill="none" xmlns="http://www.w3.org/2000/svg">
<path d="M3.38635 9.60656C3.25286 9.47308 3.1711 9.28758 3.17136 9.08387L3.17136 8.99421C3.17136 8.58626 3.50161 8.25601 3.90904 8.25653L7.93977 8.25653L1.12135 1.43811C0.833387 1.15014 0.833387 0.682726 1.12135 0.394763C1.40931 0.1068 1.87673 0.1068 2.16469 0.394763L8.98312 7.21318L8.98312 3.18245C8.98312 2.7745 9.31337 2.44425 9.72079 2.44477L9.81046 2.44477C10.2184 2.44477 10.5487 2.77502 10.5481 3.18245L10.5481 9.08387C10.5481 9.49182 10.2179 9.82207 9.81046 9.82155L3.90904 9.82155C3.70506 9.82155 3.51983 9.74004 3.38635 9.60656Z" fill="#F33333"/>
</svg>
