<svg width="33" height="34" viewBox="0 0 33 34" fill="none" xmlns="http://www.w3.org/2000/svg">
<path d="M22.7868 23.3013C22.8052 23.3013 22.8236 23.2998 22.8418 23.297C24.8888 22.9738 26.7533 21.9305 28.0996 20.355C29.4459 18.7795 30.1857 16.7752 30.1858 14.7028C30.1858 9.90598 26.2834 6.00355 21.4866 6.00355C20.7349 6.00359 19.9865 6.10088 19.2598 6.29299L18.157 4.95967C18.0053 4.77618 17.8189 4.62438 17.6085 4.51293C17.3981 4.40148 17.1678 4.33257 16.9308 4.31013C16.6937 4.28769 16.4546 4.31217 16.227 4.38216C15.9994 4.45215 15.7879 4.56628 15.6044 4.71804L13.0618 6.82083C12.6913 7.12729 12.4576 7.56841 12.4123 8.04713C12.367 8.52585 12.5137 9.00296 12.8202 9.37351L13.8222 10.5848C13.2394 11.6631 12.8944 12.8537 12.8103 14.0765C12.8002 14.0765 12.7903 14.0761 12.7802 14.0761C12.0285 14.0761 11.2801 14.1734 10.5534 14.3655L9.4506 13.0322C9.29888 12.8487 9.11249 12.6969 8.9021 12.5854C8.6917 12.474 8.46141 12.4051 8.22437 12.3826C7.98734 12.3602 7.74821 12.3847 7.52064 12.4547C7.29306 12.5246 7.08151 12.6388 6.89805 12.7905L4.35519 14.8935C3.98513 15.2003 3.75187 15.6413 3.70657 16.1199C3.66127 16.5984 3.80764 17.0754 4.11357 17.4461L5.11559 18.6574C4.436 19.9236 4.08052 21.3384 4.08091 22.7755C4.08091 27.5723 7.9834 31.4748 12.7801 31.4748C17.5768 31.4748 21.4794 27.5721 21.4794 22.7754C21.4794 18.2269 17.9703 14.4831 13.5172 14.1077C13.602 12.9151 13.9569 11.7573 14.555 10.722C14.5909 10.6595 14.6069 10.5876 14.6009 10.5158C14.5948 10.444 14.5669 10.3757 14.521 10.3202L13.3651 8.92279C13.2726 8.81088 13.203 8.68184 13.1603 8.54302C13.1176 8.40421 13.1027 8.25835 13.1164 8.11376C13.13 7.96918 13.1721 7.82871 13.24 7.70037C13.308 7.57203 13.4006 7.45834 13.5125 7.36579L16.0551 5.26294C16.2811 5.07604 16.5721 4.98656 16.8641 5.0142C17.1561 5.04184 17.4251 5.18433 17.6121 5.41032L18.8559 6.91431L19.5055 7.76628C19.6041 7.89581 19.6666 8.04912 19.6867 8.21063C19.7068 8.37214 19.6839 8.5361 19.6201 8.68586C19.5242 8.90715 19.3462 9.08264 19.1235 9.17545C18.2456 9.55151 17.4697 10.131 16.8599 10.8661C16.2501 11.6011 15.8239 12.4707 15.6165 13.403C15.6059 13.4485 15.6045 13.4957 15.6123 13.5418C15.6201 13.5879 15.6369 13.6321 15.6619 13.6716C15.6869 13.7112 15.7194 13.7454 15.7577 13.7722C15.7959 13.7991 15.8392 13.8181 15.8848 13.8282C15.9305 13.8383 15.9777 13.8392 16.0237 13.8309C16.0698 13.8226 16.1137 13.8052 16.153 13.7798C16.1922 13.7544 16.2261 13.7215 16.2525 13.6829C16.279 13.6444 16.2975 13.601 16.3071 13.5552C16.4902 12.7326 16.8664 11.9655 17.4045 11.317C17.9426 10.6685 18.6273 10.1573 19.4019 9.82556C19.6314 9.72963 19.8359 9.58236 19.9996 9.39507C20.1633 9.20777 20.2818 8.98545 20.3462 8.74517C20.4105 8.50489 20.4189 8.25307 20.3707 8.00904C20.3225 7.76501 20.219 7.53528 20.0682 7.33751L19.7373 6.90378C20.7825 6.66949 21.8641 6.64767 22.9179 6.83961C23.9717 7.03155 24.9761 7.43333 25.8716 8.02109C26.767 8.60885 27.5352 9.37059 28.1305 10.2611C28.7257 11.1515 29.1359 12.1526 29.3367 13.2047C29.5375 14.2568 29.5248 15.3386 29.2993 16.3857C29.0738 17.4328 28.6402 18.4239 28.0241 19.3001C27.4081 20.1764 26.6222 20.9198 25.7132 21.4864C24.8042 22.0529 23.7905 22.4309 22.7325 22.598C22.6445 22.6117 22.5649 22.6581 22.5096 22.7279C22.4543 22.7977 22.4274 22.8859 22.4342 22.9747C22.4411 23.0635 22.4812 23.1464 22.5465 23.207C22.6119 23.2675 22.6977 23.3011 22.7868 23.3011V23.3013ZM20.7722 22.7754C20.7719 24.0004 20.49 25.2088 19.9483 26.3074C19.4066 27.4061 18.6196 28.3655 17.6481 29.1116C16.6767 29.8577 15.5467 30.3705 14.3455 30.6104C13.1443 30.8503 11.904 30.8109 10.7205 30.4952C9.53692 30.1795 8.44178 29.596 7.51963 28.7898C6.59747 27.9835 5.87299 26.976 5.40214 25.8452C4.93128 24.7144 4.72666 23.4905 4.80407 22.268C4.88148 21.0456 5.23885 19.8572 5.84859 18.7949C5.88452 18.7324 5.90052 18.6605 5.89444 18.5887C5.88837 18.5169 5.86051 18.4486 5.81459 18.3931L4.65878 16.9954C4.47217 16.7693 4.38288 16.4783 4.41051 16.1864C4.43814 15.8945 4.58043 15.6255 4.80617 15.4384L7.34858 13.3356C7.46048 13.243 7.58952 13.1734 7.72833 13.1307C7.86713 13.0881 8.01298 13.0731 8.15755 13.0868C8.30212 13.1005 8.44258 13.1426 8.57091 13.2105C8.69923 13.2785 8.81291 13.3711 8.90545 13.483L10.1493 14.9869L10.799 15.839C10.8975 15.9686 10.96 16.1219 10.9801 16.2834C11.0002 16.4449 10.9772 16.6089 10.9135 16.7586C10.8175 16.9799 10.6396 17.1553 10.417 17.2482C9.53909 17.6243 8.76322 18.2038 8.15343 18.9388C7.54363 19.6739 7.1174 20.5434 6.90991 21.4757C6.89934 21.5212 6.89791 21.5684 6.90571 21.6145C6.91351 21.6606 6.93038 21.7047 6.95534 21.7443C6.9803 21.7838 7.01285 21.818 7.05112 21.8449C7.08939 21.8718 7.13261 21.8908 7.17828 21.9009C7.22395 21.911 7.27116 21.9119 7.31718 21.9036C7.36321 21.8953 7.40712 21.8779 7.4464 21.8525C7.48567 21.8271 7.51951 21.7942 7.54597 21.7556C7.57243 21.7171 7.59098 21.6736 7.60054 21.6279C7.78372 20.8053 8.15989 20.0382 8.69801 19.3897C9.23613 18.7412 9.92076 18.23 10.6954 17.8982C10.9248 17.8023 11.1292 17.655 11.2929 17.4677C11.4565 17.2804 11.575 17.0581 11.6393 16.8178C11.7037 16.5776 11.712 16.3258 11.6638 16.0818C11.6156 15.8378 11.5121 15.6081 11.3613 15.4103L11.0307 14.9766C12.1998 14.7148 13.4127 14.7191 14.5799 14.9892C15.7471 15.2593 16.8386 15.7882 17.7739 16.537C18.7091 17.2857 19.4641 18.2351 19.983 19.3149C20.5019 20.3947 20.7715 21.5773 20.7719 22.7754L20.7722 22.7754Z" fill="#F70505"/>
<path d="M22.3974 19.9287C22.305 19.9447 22.2228 19.9967 22.1687 20.0734C22.1147 20.15 22.0933 20.245 22.1093 20.3374C22.1253 20.4298 22.1773 20.512 22.2539 20.5661C22.3306 20.6201 22.4255 20.6415 22.5179 20.6255C24.0002 20.3671 25.3317 19.5623 26.2495 18.37C27.1672 17.1777 27.6045 15.6846 27.4749 14.1855C27.3454 12.6865 26.6584 11.2906 25.5497 10.2734C24.441 9.25621 22.9912 8.69177 21.4866 8.69155C21.4397 8.69092 21.3932 8.6996 21.3498 8.71709C21.3063 8.73458 21.2668 8.76052 21.2334 8.79342C21.2001 8.82632 21.1736 8.86551 21.1556 8.90872C21.1375 8.95193 21.1282 8.9983 21.1282 9.04514C21.1282 9.09198 21.1375 9.13835 21.1556 9.18156C21.1736 9.22477 21.2001 9.26396 21.2334 9.29686C21.2668 9.32975 21.3063 9.3557 21.3498 9.37319C21.3932 9.39068 21.4397 9.39936 21.4866 9.39873C22.8141 9.39887 24.0934 9.89683 25.0717 10.7943C26.0501 11.6917 26.6563 12.9234 26.7707 14.246C26.8851 15.5687 26.4994 16.8861 25.6897 17.9382C24.88 18.9904 23.7053 19.7006 22.3974 19.9287ZM16.6105 21.9078C16.6489 21.9344 16.6922 21.9531 16.7379 21.9628C16.7836 21.9725 16.8307 21.9731 16.8766 21.9645C16.9226 21.9559 16.9663 21.9383 17.0054 21.9127C17.0444 21.8871 17.078 21.8541 17.1042 21.8154C17.1304 21.7767 17.1487 21.7333 17.158 21.6875C17.1674 21.6417 17.1675 21.5946 17.1585 21.5488C17.1495 21.5029 17.1315 21.4593 17.1055 21.4205C17.0796 21.3817 17.0462 21.3484 17.0073 21.3225C15.966 20.6151 15.1048 19.6736 14.4927 18.5736C14.4702 18.533 14.4399 18.4972 14.4035 18.4683C14.3672 18.4394 14.3255 18.4179 14.2808 18.4052C14.2362 18.3924 14.1894 18.3885 14.1433 18.3938C14.0972 18.3991 14.0525 18.4134 14.0119 18.4359C13.9713 18.4584 13.9355 18.4887 13.9066 18.5251C13.8777 18.5614 13.8563 18.6031 13.8435 18.6478C13.8307 18.6924 13.8268 18.7391 13.8321 18.7853C13.8374 18.8314 13.8517 18.8761 13.8742 18.9167C14.5403 20.1137 15.4774 21.1381 16.6105 21.9078ZM15.8548 8.25554C15.8675 8.27487 15.882 8.29292 15.8981 8.30945C15.9147 8.3256 15.9327 8.34013 15.952 8.35282C15.9712 8.36573 15.9917 8.37669 16.013 8.38555C16.0345 8.39431 16.0567 8.4011 16.0793 8.40584C16.102 8.41035 16.1251 8.41271 16.1483 8.41288C16.1948 8.41293 16.2408 8.40382 16.2837 8.38607C16.3266 8.36832 16.3656 8.34228 16.3984 8.30944C16.4313 8.2766 16.4573 8.2376 16.4751 8.19468C16.4928 8.15176 16.5019 8.10577 16.5019 8.05932C16.502 8.01286 16.4929 7.96683 16.4751 7.9239C16.4574 7.88096 16.4313 7.84196 16.3984 7.80913C16.3819 7.79271 16.3638 7.77785 16.3445 7.76474C16.3254 7.75178 16.3049 7.74081 16.2835 7.73201C16.2624 7.7234 16.2405 7.7169 16.2181 7.71261C16.1553 7.6998 16.0901 7.70437 16.0297 7.72583C15.9692 7.74728 15.9157 7.78481 15.875 7.83437C15.8343 7.88393 15.8078 7.94366 15.7985 8.00713C15.7892 8.0706 15.7973 8.13541 15.8221 8.19459C15.8309 8.21597 15.8419 8.23639 15.8548 8.25554Z" fill="#F70505"/>
<path d="M12.4265 17.1179C12.4265 17.2117 12.4637 17.3016 12.5301 17.3679C12.5964 17.4342 12.6863 17.4715 12.7801 17.4715C13.7443 17.4718 14.6902 17.7349 15.5161 18.2326C16.342 18.7303 17.0166 19.4437 17.4673 20.2961C17.9181 21.1485 18.1279 22.1077 18.0742 23.0705C18.0206 24.0332 17.7055 24.9631 17.1629 25.7602C16.6203 26.5573 15.8706 27.1914 14.9945 27.5942C14.1185 27.9971 13.1492 28.1535 12.1909 28.0467C11.2326 27.9399 10.3215 27.5738 9.55567 26.9879C8.78985 26.402 8.19824 25.6184 7.84446 24.7214C7.80998 24.6341 7.74226 24.5642 7.6562 24.5269C7.57014 24.4896 7.47279 24.488 7.38556 24.5225C7.29834 24.557 7.22838 24.6247 7.19108 24.7108C7.15378 24.7968 7.1522 24.8942 7.18668 24.9814C7.58758 25.9982 8.2581 26.8865 9.12612 27.5507C9.99415 28.2149 11.0268 28.6299 12.1131 28.7511C13.1994 28.8722 14.2981 28.6949 15.2911 28.2383C16.2842 27.7816 17.1339 27.0629 17.749 26.1594C18.3641 25.2559 18.7212 24.2018 18.7819 23.1105C18.8427 22.0191 18.6047 20.9319 18.0937 19.9657C17.5827 18.9995 16.818 18.1909 15.8818 17.6269C14.9455 17.0629 13.8732 16.7648 12.7802 16.7646C12.6865 16.7646 12.5966 16.8018 12.5302 16.868C12.4639 16.9343 12.4266 17.0242 12.4265 17.1179ZM7.50003 23.2812C7.49462 23.2248 7.49016 23.168 7.48665 23.111C7.48008 23.0179 7.437 22.9312 7.36681 22.8698C7.29662 22.8084 7.205 22.7772 7.1119 22.783C7.0188 22.7888 6.93177 22.8311 6.86975 22.9008C6.80774 22.9705 6.77577 23.0618 6.7808 23.155C6.78486 23.2197 6.78987 23.2838 6.79596 23.3479C6.80422 23.4355 6.84482 23.5168 6.90984 23.576C6.97485 23.6353 7.0596 23.6681 7.14755 23.6682C7.15865 23.6682 7.16994 23.6677 7.18123 23.6666C7.27461 23.6578 7.36066 23.6122 7.42044 23.54C7.48023 23.4677 7.50886 23.3746 7.50003 23.2812ZM7.44169 16.4857C7.48814 16.4858 7.53416 16.4767 7.57709 16.4589C7.62002 16.4412 7.65903 16.4152 7.69188 16.3823C7.72474 16.3495 7.75078 16.3105 7.76853 16.2675C7.78628 16.2246 7.79538 16.1786 7.79531 16.1321C7.79541 16.0857 7.78632 16.0397 7.76857 15.9967C7.75082 15.9538 7.72476 15.9148 7.69188 15.882C7.6506 15.841 7.59997 15.8108 7.54436 15.7938C7.48875 15.7769 7.42984 15.7738 7.37275 15.7847C7.35019 15.7899 7.32804 15.7966 7.30648 15.805C7.28524 15.8142 7.26482 15.8251 7.24547 15.8377C7.22624 15.8506 7.20846 15.8655 7.19245 15.8821C7.14299 15.9315 7.10928 15.9945 7.09557 16.063C7.08187 16.1316 7.08879 16.2026 7.11547 16.2672C7.14214 16.3319 7.18736 16.3871 7.24543 16.426C7.30349 16.4649 7.37179 16.4858 7.44169 16.4859V16.4857ZM4.79718 13.2985C4.86631 13.2985 4.93391 13.2782 4.99163 13.2401C5.04935 13.2021 5.09466 13.1479 5.12194 13.0844C5.14923 13.0209 5.1573 12.9508 5.14516 12.8827C5.13302 12.8147 5.10121 12.7517 5.05364 12.7015C4.29165 11.8986 3.7843 10.8882 3.5955 9.79749C3.40671 8.7068 3.5449 7.58463 3.99268 6.57233C4.44046 5.56004 5.17779 4.7029 6.11181 4.10887C7.04582 3.51485 8.13474 3.21052 9.2414 3.23421C9.98256 3.24785 10.7135 3.40934 11.3915 3.7092C12.0694 4.00906 12.6807 4.44126 13.1894 4.98046C13.2212 5.01473 13.2595 5.04235 13.3021 5.06172C13.3446 5.08108 13.3906 5.09182 13.4373 5.09329C13.4841 5.09477 13.5307 5.08696 13.5744 5.07031C13.6181 5.05367 13.658 5.02852 13.692 4.99633C13.7259 4.96413 13.7531 4.92553 13.772 4.88275C13.7909 4.83997 13.8011 4.79387 13.8021 4.74712C13.803 4.70036 13.7947 4.65388 13.7776 4.61036C13.7604 4.56684 13.7349 4.52715 13.7023 4.49359C13.1279 3.88838 12.4393 3.40298 11.6763 3.06545C10.9132 2.72792 10.0909 2.54494 9.25667 2.52708C8.42249 2.50923 7.59304 2.65685 6.81624 2.96142C6.03945 3.26599 5.3307 3.72148 4.73097 4.30156C2.25128 6.69969 2.16598 10.6863 4.54071 13.1884C4.57372 13.2232 4.61349 13.2509 4.65759 13.2699C4.70168 13.2888 4.74918 13.2986 4.79718 13.2985Z" fill="#F70505"/>
</svg>
