<svg width="11" height="10" viewBox="0 0 11 10" fill="none" xmlns="http://www.w3.org/2000/svg">
<path d="M3.38635 0.39344C3.25286 0.526923 3.1711 0.712418 3.17136 0.916131L3.17136 1.00579C3.17136 1.41374 3.50161 1.74399 3.90904 1.74347L7.93977 1.74347L1.12135 8.56189C0.833387 8.84986 0.833387 9.31727 1.12135 9.60524C1.40931 9.8932 1.87673 9.8932 2.16469 9.60524L8.98312 2.78682L8.98312 6.81755C8.98312 7.2255 9.31337 7.55575 9.72079 7.55523L9.81046 7.55523C10.2184 7.55523 10.5487 7.22498 10.5481 6.81755L10.5481 0.916132C10.5481 0.508184 10.2179 0.177933 9.81046 0.178454L3.90904 0.178454C3.70506 0.178454 3.51983 0.259957 3.38635 0.39344Z" fill="#34C759"/>
</svg>
