<svg width="17" height="16" viewBox="0 0 17 16" fill="none" xmlns="http://www.w3.org/2000/svg">
<path d="M8.73586 3.67836C9.00715 3.67836 9.22708 3.89828 9.22708 4.16958C9.22708 4.44087 9.00715 4.6608 8.73586 4.6608C8.46457 4.6608 8.24464 4.44087 8.24464 4.16958C8.24464 3.89828 8.46457 3.67836 8.73586 3.67836ZM8.73586 7.60813C9.00715 7.60813 9.22708 7.82805 9.22708 8.09935C9.22708 8.37064 9.00715 8.59057 8.73586 8.59057C8.46457 8.59057 8.24464 8.37064 8.24464 8.09935C8.24464 7.82805 8.46457 7.60813 8.73586 7.60813ZM8.73586 11.5379C9.00715 11.5379 9.22708 11.7578 9.22708 12.0291C9.22708 12.3004 9.00715 12.5203 8.73586 12.5203C8.46457 12.5203 8.24464 12.3004 8.24464 12.0291C8.24464 11.7578 8.46457 11.5379 8.73586 11.5379Z" fill="#191B1C" stroke="#191B1C" stroke-width="0.982443"/>
</svg>
