<svg width="140" height="140" viewBox="0 0 140 140" fill="none" xmlns="http://www.w3.org/2000/svg">
<path d="M70.0002 128.333C84.3596 128.395 98.6559 126.431 112.467 122.5L116.667 121.275V84.1748L95.2585 71.3414C93.1045 74.6834 90.493 77.7072 87.5002 80.3248C82.7735 84.8272 76.5271 87.3883 70.0002 87.4998C63.4846 87.3871 57.2451 84.8497 52.5002 80.3831C49.5406 77.7272 46.9508 74.6862 44.8002 71.3414L23.3335 84.1748V121.041L27.5335 122.266C41.3331 126.277 55.6297 128.319 70.0002 128.333Z" fill="#838383"/>
<path d="M70.0002 81.6667C87.7918 81.6667 99.1668 54.8333 99.1668 40.8333C99.1668 33.0978 96.0939 25.6792 90.6241 20.2094C85.1543 14.7396 77.7356 11.6667 70.0002 11.6667C62.2647 11.6667 54.846 14.7396 49.3762 20.2094C43.9064 25.6792 40.8335 33.0978 40.8335 40.8333C40.8335 54.8333 52.2085 81.6667 70.0002 81.6667Z" fill="#838383"/>
</svg>
