<svg width="14" height="15" viewBox="0 0 14 15" fill="none" xmlns="http://www.w3.org/2000/svg">
<path fill-rule="evenodd" clip-rule="evenodd" d="M1.56644 6.16668C1.56644 3.90232 3.40207 2.06668 5.66644 2.06668C7.93081 2.06668 9.76644 3.90232 9.76644 6.16668C9.76644 8.43105 7.93081 10.2667 5.66644 10.2667C3.40207 10.2667 1.56644 8.43105 1.56644 6.16668ZM5.66644 0.93335C2.77615 0.93335 0.433105 3.27639 0.433105 6.16668C0.433105 9.05697 2.77615 11.4 5.66644 11.4C6.90745 11.4 8.04757 10.9681 8.94464 10.2463L12.5991 13.9007C12.8204 14.122 13.1792 14.122 13.4005 13.9007C13.6218 13.6794 13.6218 13.3206 13.4005 13.0993L9.74603 9.44489C10.4678 8.54781 10.8998 7.40769 10.8998 6.16668C10.8998 3.27639 8.55673 0.93335 5.66644 0.93335Z" fill="black"/>
</svg>
