<svg width="22" height="22" viewBox="0 0 22 22" fill="none" xmlns="http://www.w3.org/2000/svg">
<path d="M1 4.00004H4.545C4.6668 4.69533 5.02988 5.3254 5.57036 5.77944C6.11085 6.23347 6.79412 6.48237 7.5 6.48237C8.20588 6.48237 8.88916 6.23347 9.42964 5.77944C9.97012 5.3254 10.3332 4.69533 10.455 4.00004H21C21.1326 4.00004 21.2598 3.94736 21.3536 3.85359C21.4473 3.75982 21.5 3.63265 21.5 3.50004C21.5 3.36743 21.4473 3.24025 21.3536 3.14648C21.2598 3.05272 21.1326 3.00004 21 3.00004H10.455C10.3332 2.30474 9.97012 1.67467 9.42964 1.22064C8.88916 0.766607 8.20588 0.5177 7.5 0.5177C6.79412 0.5177 6.11085 0.766607 5.57036 1.22064C5.02988 1.67467 4.6668 2.30474 4.545 3.00004H1C0.867392 3.00004 0.740215 3.05272 0.646447 3.14648C0.552678 3.24025 0.5 3.36743 0.5 3.50004C0.5 3.63265 0.552678 3.75982 0.646447 3.85359C0.740215 3.94736 0.867392 4.00004 1 4.00004ZM7.5 1.50004C7.89556 1.50004 8.28224 1.61734 8.61114 1.8371C8.94004 2.05686 9.19638 2.36922 9.34776 2.73467C9.49913 3.10012 9.53874 3.50226 9.46157 3.89022C9.3844 4.27818 9.19392 4.63455 8.91421 4.91425C8.63451 5.19396 8.27814 5.38444 7.89018 5.46161C7.50222 5.53878 7.10009 5.49917 6.73463 5.3478C6.36918 5.19642 6.05682 4.94008 5.83706 4.61118C5.6173 4.28228 5.5 3.8956 5.5 3.50004C5.5 2.9696 5.71071 2.4609 6.08579 2.08582C6.46086 1.71075 6.96957 1.50004 7.5 1.50004ZM21 10.5H17.455C17.3332 9.80474 16.9701 9.17467 16.4296 8.72064C15.8892 8.26661 15.2059 8.0177 14.5 8.0177C13.7941 8.0177 13.1108 8.26661 12.5704 8.72064C12.0299 9.17467 11.6668 9.80474 11.545 10.5H1C0.867392 10.5 0.740215 10.5527 0.646447 10.6465C0.552678 10.7403 0.5 10.8674 0.5 11C0.5 11.1326 0.552678 11.2598 0.646447 11.3536C0.740215 11.4474 0.867392 11.5 1 11.5H11.545C11.6668 12.1953 12.0299 12.8254 12.5704 13.2794C13.1108 13.7335 13.7941 13.9824 14.5 13.9824C15.2059 13.9824 15.8892 13.7335 16.4296 13.2794C16.9701 12.8254 17.3332 12.1953 17.455 11.5H21C21.1326 11.5 21.2598 11.4474 21.3536 11.3536C21.4473 11.2598 21.5 11.1326 21.5 11C21.5 10.8674 21.4473 10.7403 21.3536 10.6465C21.2598 10.5527 21.1326 10.5 21 10.5ZM14.5 13C14.1044 13 13.7178 12.8827 13.3889 12.663C13.06 12.4432 12.8036 12.1309 12.6522 11.7654C12.5009 11.4 12.4613 10.9978 12.5384 10.6099C12.6156 10.2219 12.8061 9.86553 13.0858 9.58582C13.3655 9.30612 13.7219 9.11564 14.1098 9.03847C14.4978 8.9613 14.8999 9.0009 15.2654 9.15228C15.6308 9.30365 15.9432 9.56 16.1629 9.8889C16.3827 10.2178 16.5 10.6045 16.5 11C16.5 11.5305 16.2893 12.0392 15.9142 12.4143C15.5391 12.7893 15.0304 13 14.5 13ZM21 18H10.455C10.3332 17.3047 9.97012 16.6747 9.42964 16.2206C8.88916 15.7666 8.20588 15.5177 7.5 15.5177C6.79412 15.5177 6.11085 15.7666 5.57036 16.2206C5.02988 16.6747 4.6668 17.3047 4.545 18H1C0.867392 18 0.740215 18.0527 0.646447 18.1465C0.552678 18.2403 0.5 18.3674 0.5 18.5C0.5 18.6326 0.552678 18.7598 0.646447 18.8536C0.740215 18.9474 0.867392 19 1 19H4.545C4.6668 19.6953 5.02988 20.3254 5.57036 20.7794C6.11085 21.2335 6.79412 21.4824 7.5 21.4824C8.20588 21.4824 8.88916 21.2335 9.42964 20.7794C9.97012 20.3254 10.3332 19.6953 10.455 19H21C21.1326 19 21.2598 18.9474 21.3536 18.8536C21.4473 18.7598 21.5 18.6326 21.5 18.5C21.5 18.3674 21.4473 18.2403 21.3536 18.1465C21.2598 18.0527 21.1326 18 21 18ZM7.5 20.5C7.10444 20.5 6.71776 20.3827 6.38886 20.163C6.05996 19.9432 5.80362 19.6309 5.65224 19.2654C5.50087 18.9 5.46126 18.4978 5.53843 18.1099C5.6156 17.7219 5.80608 17.3655 6.08579 17.0858C6.36549 16.8061 6.72186 16.6156 7.10982 16.5385C7.49778 16.4613 7.89991 16.5009 8.26537 16.6523C8.63082 16.8037 8.94318 17.06 9.16294 17.3889C9.3827 17.7178 9.5 18.1045 9.5 18.5C9.5 19.0305 9.28929 19.5392 8.91421 19.9142C8.53914 20.2893 8.03043 20.5 7.5 20.5Z" fill="black"/>
</svg>
